<svg id="Layer_1" data-name="Layer 1" xmlns="http://www.w3.org/2000/svg" viewBox="0 0 1850 600"><defs><style>.cls-1{fill:#00ce7c;}.cls-2,.cls-4{fill:#1e2026;}.cls-2{fill-rule:evenodd;}.cls-3{fill:#fff;}</style></defs><title>SPARK-Lockup-Primary-RGB</title><circle class="cls-1" cx="319.83" cy="300" r="265.69"/><path class="cls-2" d="M322.55,239.58h51a2.66,2.66,0,0,1,2.14,4.21l-74.24,112c-.61,1.2-2.45.3-2.14-.9l18.33-86.78H268.78a2.67,2.67,0,0,1-2.14-4.21L340,155.5c.3-.9,2.14-.29,1.83,1.21Z"/><path class="cls-3" d="M258.72,440.62a7.52,7.52,0,0,0-6.15,7.39v33.22a7.52,7.52,0,0,0,8.88,7.39L384.1,466v17.49L258.68,507.31a7.52,7.52,0,0,0,2.81,14.77l131.53-25a7.51,7.51,0,0,0,6.11-7.38V456.94a7.52,7.52,0,0,0-8.88-7.39L267.6,472.2V454.27L393,431.12a7.52,7.52,0,0,0,6.15-7.39c0-36.77,13.06-73.21,37.9-105.58l1.25-1.61a145.85,145.85,0,0,0,31.3-90.74c0-88.06-76.61-157-165.4-147C238.42,86,183.88,138.46,174.37,203.6c-6.6,45.19,7.31,89.9,38.17,122.88l1.09,1.14c24,25.08,38.81,55.46,42.66,87a7.51,7.51,0,1,0,14.91-1.82c-4.17-34.2-20-67-45.36-94.11l-1.35-1.42c-28.42-29.73-41.26-70.32-35.25-111.47,8.52-58.35,57.62-105.56,116.6-112.09,79.87-8.92,148.71,53,148.71,132.12a130.78,130.78,0,0,1-27.07,80.14l-1,1.33c-25.82,33-40.33,70.24-42.16,108.25l-.08,1.93Z"/><path class="cls-4" d="M945.44,432.29a9.65,9.65,0,1,0-9.62-9.65A9.71,9.71,0,0,0,945.44,432.29Z"/><path class="cls-4" d="M1770.71,472.77l-2.52-.55c-8.43-1.93-15.53-3.86-15.53-9.35,0-5.05,5.18-8,13.31-8,8.88,0,16.87,3.71,21.16,8.61l6.51-11c-6.51-5.79-15.68-10.1-27.81-10.1-18,0-28.11,10.1-28.11,21.82,0,14.41,11.82,18.51,23.12,21.13l5.21,1.16c8.11,1.87,14.87,4.18,14.87,10.08,0,5.34-4.74,8.76-14.06,8.76s-19.23-4.9-24.26-10.1l-7.1,11.28c7.4,7.28,18.49,11.14,30.62,11.14,19.23,0,29.74-9.65,29.74-22.27C1795.86,479.58,1782.58,475.43,1770.71,472.77Z"/><polygon class="cls-4" points="1723.23 444.16 1703.99 444.16 1672.48 478.75 1672.48 416.85 1656.95 416.85 1656.95 515.87 1672.48 515.87 1672.48 496.57 1682.4 486.32 1704.29 515.87 1723.82 515.87 1693.49 476.67 1723.23 444.16"/><path class="cls-4" d="M1612.73,454.7V444.16h-15.54v71.71h15.54V467c3.1-5,11.83-9.5,18.34-9.5a22.59,22.59,0,0,1,4.88.45V442.53C1626.63,442.53,1618.05,447.87,1612.73,454.7Z"/><path class="cls-4" d="M1536.25,442.38c-22.64,0-36.69,17.07-36.69,37.56s14,37.71,36.69,37.71c22.93,0,36.83-17.07,36.83-37.71S1559.18,442.38,1536.25,442.38Zm0,61.46c-13.17,0-20.56-11.13-20.56-23.9s7.39-23.75,20.56-23.75S1557,467.32,1557,479.94,1549.56,503.84,1536.25,503.84Z"/><polygon class="cls-4" points="1451.93 493.15 1431.52 416.85 1417.76 416.85 1397.34 493.15 1378.11 416.85 1358.73 416.85 1386.99 515.87 1405.48 515.87 1424.56 442.83 1443.8 515.87 1462.29 515.87 1490.39 416.85 1471.02 416.85 1451.93 493.15"/><path class="cls-4" d="M1269.69,472.22l-2.14-.5c-7.46-1.79-13.4-3.83-13.4-8.85s5.18-8,13.32-8c8.87,0,16.86,3.71,21.15,8.61l6.51-11c-6.51-5.79-15.68-10.1-27.81-10.1-18,0-28.11,10.1-28.11,21.82,0,14.41,11.82,18.51,23.12,21.13l5.21,1.16c8.12,1.87,14.87,4.18,14.87,10.08,0,5.34-4.73,8.76-14.06,8.76s-19.23-4.9-24.26-10.1l-7.1,11.28c7.4,7.28,18.49,11.14,30.63,11.14,19.23,0,29.73-9.65,29.73-22.27C1297.35,478.46,1282.11,474.89,1269.69,472.22Z"/><path class="cls-4" d="M1191.43,472.22l-2.13-.5c-7.46-1.79-13.4-3.83-13.4-8.85s5.18-8,13.32-8c8.87,0,16.86,3.71,21.15,8.61l6.51-11c-6.51-5.79-15.68-10.1-27.81-10.1-18,0-28.11,10.1-28.11,21.82,0,14.41,11.82,18.51,23.12,21.13l5.21,1.16c8.12,1.87,14.87,4.18,14.87,10.08,0,5.34-4.74,8.76-14.06,8.76s-19.23-4.9-24.26-10.1l-7.1,11.28c7.4,7.28,18.49,11.14,30.62,11.14,19.24,0,29.74-9.65,29.74-22.27C1219.1,478.46,1203.86,474.89,1191.43,472.22Z"/><path class="cls-4" d="M1105.93,442.38c-21.15,0-36.24,16.78-36.24,37.56,0,22.71,16,37.71,37.43,37.71,11.39,0,21.89-3.56,29-10.39L1129,497c-5,5.05-13.31,7.87-20.27,7.87-13.46,0-21.59-8.91-22.78-19.74h55.18v-3.71C1141.14,458.86,1127.38,442.38,1105.93,442.38Zm-20.12,31.77c.74-8.76,6.81-19,20.12-19,14.06,0,19.83,10.54,20.12,19Z"/><path class="cls-4" d="M1022.5,442.38A33.78,33.78,0,0,0,997.35,454v-9.8H981.82v71.71h15.53v-50c3.56-4.9,10.36-9.65,18.35-9.65,8.73,0,14.35,3.71,14.35,14.84v44.84h15.53V465.39C1045.58,450.69,1037.89,442.38,1022.5,442.38Z"/><rect class="cls-4" x="937.74" y="444.16" width="15.53" height="71.71"/><path class="cls-4" d="M886,472.22l-2.13-.5c-7.47-1.79-13.4-3.83-13.4-8.85s5.18-8,13.31-8c8.88,0,16.87,3.71,21.16,8.61l6.51-11c-6.51-5.79-15.68-10.1-27.82-10.1-18,0-28.1,10.1-28.1,21.82,0,14.41,11.82,18.51,23.12,21.13l5.21,1.16c8.11,1.87,14.86,4.18,14.86,10.08,0,5.34-4.73,8.76-14.05,8.76s-19.23-4.9-24.26-10.1l-7.1,11.28c7.39,7.28,18.49,11.14,30.62,11.14,19.23,0,29.74-9.65,29.74-22.27C913.64,478.46,898.4,474.89,886,472.22Z"/><path class="cls-4" d="M815.41,494.49a23.73,23.73,0,0,1-18.34,9.35c-8.73,0-14.35-3.41-14.35-14.55V444.16H767.19v50.77c0,14.7,7.54,22.72,22.93,22.72a34.19,34.19,0,0,0,25.29-11.28v9.5H831V444.16H815.41Z"/><path class="cls-4" d="M722.81,464.8C732,462.87,740,454.55,740,442.08c0-13.95-10.06-25.23-28.11-25.23H663.34v99h49.85c18.5,0,28.7-11.43,28.7-26.73C741.89,477,733.31,466.43,722.81,464.8Zm-42.16-32.66h27.66c8.88,0,13.91,5.49,13.91,12.91s-5,12.77-13.91,12.77H680.65Zm28.4,68.44h-28.4V473.11h28.4c9.91,0,15.09,6.24,15.09,13.66C724.14,495.38,718.52,500.58,709.05,500.58Z"/><path class="cls-4" d="M1793.77,335.67,1701.31,220.1a.19.19,0,0,1,0-.23l84.91-100.19a9.43,9.43,0,0,0-7.2-15.52h-39.91a9.48,9.48,0,0,0-7.4,3.57L1647.47,214a.18.18,0,0,1-.32-.11V113.58a9.43,9.43,0,0,0-9.42-9.42H1604a9.43,9.43,0,0,0-9.42,9.42v228A9.42,9.42,0,0,0,1604,351h33.74a9.42,9.42,0,0,0,9.42-9.42V275.19a.28.28,0,0,1,0-.13l19.07-22.72a.19.19,0,0,1,.28,0l71.84,94.88a9.43,9.43,0,0,0,7.52,3.74h40.51A9.41,9.41,0,0,0,1793.77,335.67Z"/><path class="cls-4" d="M1554.94,183.72c0-45.88-31.48-79.56-83-79.56H1365.88a9.43,9.43,0,0,0-9.44,9.42v228a9.43,9.43,0,0,0,9.44,9.42h33.72a9.43,9.43,0,0,0,9.43-9.42V262.72a.18.18,0,0,1,.18-.18h38.23a.17.17,0,0,1,.16.09l45.77,83.45a9.43,9.43,0,0,0,8.27,4.89h38.26a9.42,9.42,0,0,0,8.12-14.21l-47-79.57a.16.16,0,0,1,.1-.25C1527.69,250.57,1554.94,227.26,1554.94,183.72Zm-90.73,33.67h-55a.18.18,0,0,1-.18-.17V149.48a.17.17,0,0,1,.18-.17h55c21.11,0,37,13.32,37,34S1485.32,217.39,1464.21,217.39Z"/><path class="cls-4" d="M1240.64,110.2a9.43,9.43,0,0,0-8.8-6h-53a9.42,9.42,0,0,0-8.79,6l-88.24,228A9.42,9.42,0,0,0,1090.6,351H1128a9.43,9.43,0,0,0,8.86-6.19l13.25-36.24a.16.16,0,0,1,.17-.12h110.11a.16.16,0,0,1,.16.12l13.25,36.24a9.43,9.43,0,0,0,8.86,6.19h37.07a9.42,9.42,0,0,0,8.8-12.81Zm5.2,152.71H1164.5a.18.18,0,0,1-.17-.24l40.85-112.54a.18.18,0,0,1,.34,0L1246,262.67A.19.19,0,0,1,1245.84,262.91Z"/><path class="cls-4" d="M1015,104.16H908.9a9.44,9.44,0,0,0-9.44,9.42v228A9.43,9.43,0,0,0,908.9,351h33.72a9.43,9.43,0,0,0,9.43-9.42V262.72a.18.18,0,0,1,.18-.18H1015c53.32,0,83-35.9,83-78.82C1098,140.43,1068.7,104.16,1015,104.16Zm-7.48,113.23h-55.3a.18.18,0,0,1-.18-.17V149.48a.17.17,0,0,1,.18-.17H1008c18.56,0,33,11,35.79,27.87C1047.31,198.5,1029.16,217.39,1007.53,217.39Z"/><path class="cls-4" d="M771.33,200l-5.59-1.31c-25.59-6.1-43.66-11.64-43.66-27.18,0-14.8,12.59-25.17,36.29-25.17,21.3,0,44.61,6.67,63.56,21a9.37,9.37,0,0,0,13.12-1.81L853,142a9.52,9.52,0,0,0-1.82-13.26c-23.5-18.56-53.56-28.25-89.07-28.25-58.14,0-93.69,33.31-93.69,74.38,0,55.13,51.85,66.24,92.21,75.48l4.39,1c26.3,6.32,45.6,12.87,45.6,30.42,0,14.06-14.07,27.75-43,27.75a108.23,108.23,0,0,1-71-26.2,9.4,9.4,0,0,0-13.79,1.57l-17.73,24.55a9.53,9.53,0,0,0,1.65,12.82c23,20,55.12,33.14,98.28,33.14,66.65,0,98.87-34,98.87-79.19C863.91,221.46,812.07,209.26,771.33,200Z"/></svg>